<svg version="1.2" xmlns="http://www.w3.org/2000/svg" viewBox="0 0 1640 664" width="1640" height="664">
	<style>
		.s0 { fill: #f3ec0c } 
	</style>
	<path id="Remplissage couleur unie 1" class="s0" d="m841.36 189.58c-5.5 1.03-12.7 2.58-16 3.44-3.3 0.86-11.4 3.41-18 5.67-6.6 2.26-18.3 7.21-26 11-7.7 3.79-19.4 10.43-26 14.75-6.6 4.32-16.5 11.47-22 15.9-5.5 4.42-14.28 12.53-19.5 18.02-5.23 5.49-12.54 14.22-16.25 19.39-3.71 5.18-8.96 13.92-11.67 19.42-2.7 5.5-5.81 12.92-6.9 16.5-1.09 3.57-2.54 10.32-3.22 15-0.74 5.03-1.01 12.58-0.68 18.5 0.31 5.5 1.52 13.6 2.68 18 1.15 4.4 3.78 11.82 5.84 16.5 2.06 4.67 6.41 12.55 9.69 17.5 3.47 5.25 10.32 13.39 16.47 19.54 5.8 5.81 13.69 12.88 17.54 15.73 3.85 2.85 11.5 7.85 17 11.12 5.5 3.27 14.05 7.73 19 9.91 4.95 2.18 13.95 5.6 20 7.6 6.05 2.01 15.61 4.53 21.25 5.62 7.39 1.43 14.43 1.98 25.25 1.98 11.51 0 17.26-0.49 24.75-2.11 5.36-1.16 13.12-3.44 17.25-5.07 4.12-1.63 10.42-4.55 14-6.5 3.57-1.94 9.42-5.7 13-8.35 3.57-2.65 10.59-9.01 15.58-14.14 5-5.13 11.5-12.93 14.44-17.33 2.95-4.4 7.05-11.38 9.12-15.5 2.07-4.13 5.54-12.45 7.7-18.5 2.17-6.05 5.08-15.73 6.48-21.5 1.4-5.78 3.3-15.45 4.23-21.5 1.32-8.66 1.57-15.25 1.17-31-0.41-16.29-0.98-22.23-3.06-32-1.41-6.6-3.98-16.05-5.71-21-1.74-4.95-5.24-13.05-7.8-18-2.56-4.95-6.64-11.7-9.09-15-2.44-3.3-6.49-8.2-9-10.88-2.51-2.68-7.26-6.81-10.56-9.17-3.3-2.36-8.7-5.64-12-7.29-3.3-1.65-9.38-3.97-13.5-5.16-5.6-1.62-11.05-2.27-21.5-2.57-10.81-0.3-16.29 0.03-24 1.48z"/>
</svg>