<svg xmlns="http://www.w3.org/2000/svg" viewBox="0 0 47.629 47.629">
  <path fill="#de241b" d="M 40.293 23.8145 C 40.293 38.8668 47.629 47.629 47.629 47.629 C 47.629 47.629 38.8668 40.293 23.8145 40.293 C 8.7622 40.293 0 47.629 0 47.629 C 0 47.629 7.336 38.8668 7.336 23.8145 C 7.336 8.7622 0 0 0 0 C 0 0 8.7622 7.336 23.8145 7.336 C 38.8668 7.336 47.629 0 47.629 0 C 47.629 0 40.293 8.7622 40.293 23.8145" />
  <path fill="#fff" d="M 23.5365 32.1675 C 22.3195 32.1675 21.1655 31.6815 20.1845 30.7515 C 18.5725 29.2215 17.6485 26.7305 17.6485 23.9125 C 17.6485 20.9015 18.6085 18.2635 20.2815 16.6755 C 21.3055 15.7055 22.5115 15.2135 23.7805 15.2925 C 27.2555 15.4745 29.9785 19.2555 29.9785 23.8995 C 29.9785 28.3475 27.2555 31.9775 23.7805 32.1605 C 23.6985 32.1655 23.6185 32.1675 23.5365 32.1675 M 23.1235 9.9855 C 20.8105 9.9855 18.6685 10.8425 16.8895 12.4905 C 14.1485 15.0285 12.5765 19.1945 12.5765 23.9175 C 12.5765 28.4445 14.1105 32.4625 16.7855 34.9405 C 18.7705 36.7775 21.2175 37.6435 23.8565 37.4385 C 30.2395 36.9475 35.0525 31.1255 35.0525 23.8955 C 35.0525 16.4725 30.2395 10.5045 23.8565 10.0135 C 23.6095 9.9955 23.3655 9.9855 23.1235 9.9855" />
</svg>
