<svg xmlns="http://www.w3.org/2000/svg" viewBox="0 0 400 158">
  <defs>
    <clipPath id="clippath0" transform="">
      <path d="M 0 68.831 L 174.245 68.831 L 174.245 0 L 0 0 Z" style="fill: none; clip-rule: nonzero;"></path>
    </clipPath>
  </defs>
  <g class="page-1" transform="matrix(2.295616, 0, 0, -2.295616, 0, 158.009552)">
    <g transform="">
      <path d="M 0 68.831 L 174.245 68.831 L 174.245 0 L 0 0 Z" style="fill: none;"></path>
    </g>
    <g style="clip-path: url(#clippath0);">
      <g transform="translate(166.9092 44.6905)">
        <path d="M 0 0 C 0 15.258 7.336 24.14 7.336 24.14 C 7.336 24.14 -30.779 17.396 -79.787 17.396 C -137.786 17.396 -166.909 24.14 -166.909 24.14 C -166.909 24.14 -159.001 16.125 -159.001 0 C -159.001 -16.125 -166.909 -23.489 -166.909 -23.489 C -166.909 -23.489 -119.954 -15.058 -80.829 -15.058 C -41.705 -15.058 7.336 -23.489 7.336 -23.489 C 7.336 -23.489 0 -15.258 0 0" style="fill: rgb(222, 36, 27); fill-opacity: 1;"></path>
      </g>
    </g>
    <g style="clip-path: url(#clippath0);">
      <g transform="translate(86.0797 29.6325)">
        <path d="M 0 0 C -14.997 0 -31.143 -1.239 -45.356 -2.767 C -38.759 -18.393 -20.484 -29.632 1.043 -29.632 C 22.505 -29.632 40.735 -18.461 47.383 -2.909 C 32.464 -1.317 15.459 0 0 0" style="fill: rgb(34, 37, 39); fill-opacity: 1;"></path>
      </g>
    </g>
    <g style="clip-path: url(#clippath0);">
      <g transform="translate(66.6584 15.4004)">
        <path d="M 0 0 C 0 -3.11 -2.453 -4.599 -5.826 -4.599 C -8.563 -4.599 -11.717 -3.022 -11.717 0.044 C -11.717 0.548 -11.585 0.657 -11.082 0.657 L -8.958 0.657 C -8.455 0.657 -8.213 0.591 -8.17 0.044 C -8.147 -0.241 -8.038 -0.526 -7.754 -0.854 C -7.316 -1.38 -6.418 -1.577 -5.607 -1.577 C -4.424 -1.577 -3.461 -1.314 -3.461 -0.088 C -3.461 1.138 -5.409 1.161 -7.272 1.752 C -9.483 2.453 -11.521 3.329 -11.521 6.11 C -11.521 8.958 -8.937 10.36 -6.199 10.469 C -3.417 10.469 -0.372 9.198 -0.372 6.308 C -0.372 5.782 -0.503 5.694 -1.008 5.694 L -3.154 5.694 C -3.57 5.694 -3.636 6.001 -3.746 6.285 C -3.833 6.505 -3.942 6.679 -4.205 6.943 C -4.621 7.337 -5.409 7.534 -6.067 7.534 C -6.79 7.534 -7.994 7.249 -7.994 6.264 C -7.994 4.927 -4.774 4.446 -3.899 4.096 C -2.321 3.614 0 2.979 0 0" style="fill: rgb(255, 255, 255); fill-opacity: 1;"></path>
      </g>
    </g>
    <g style="clip-path: url(#clippath0);">
      <g transform="translate(76.6659 20.3934)">
        <path d="M 0 0 C 0 1.139 -0.744 2.059 -2.453 2.059 L -4.555 2.059 L -4.555 -2.037 L -2.453 -2.037 C -0.744 -2.037 0 -1.095 0 0 M 3.308 0.066 C 3.308 -2.979 1.293 -4.993 -2.453 -4.993 L -4.555 -4.993 L -4.555 -8.629 C -4.555 -9.132 -4.796 -9.264 -5.191 -9.264 L -7.359 -9.264 C -7.752 -9.264 -7.994 -9.132 -7.994 -8.629 L -7.994 4.512 C -7.994 4.906 -7.862 5.147 -7.359 5.147 L -2.43 5.147 C 1.336 5.147 3.308 3.088 3.308 0.066" style="fill: rgb(255, 255, 255); fill-opacity: 1;"></path>
      </g>
    </g>
    <g style="clip-path: url(#clippath0);">
      <g transform="translate(89.7632 20.6131)">
        <path d="M 0 0 C 0 1.402 -1.008 2.212 -2.453 2.212 C -3.876 2.212 -4.885 1.402 -4.885 0 L -4.885 -4.555 C -4.885 -5.957 -3.876 -6.767 -2.453 -6.767 C -1.008 -6.767 0 -5.957 0 -4.555 Z M 3.438 -4.862 C 3.438 -8.323 0.153 -9.812 -2.453 -9.812 C -5.059 -9.812 -8.302 -8.323 -8.302 -4.862 L -8.302 0.306 C -8.302 3.767 -5.059 5.256 -2.453 5.256 C 0.153 5.256 3.438 3.767 3.438 0.306 Z" style="fill: rgb(255, 255, 255); fill-opacity: 1;"></path>
      </g>
    </g>
    <g style="clip-path: url(#clippath0);">
      <g transform="translate(106.9322 11.1295)">
        <path d="M 0 0 L -2.585 0 C -3.109 0 -3.373 0.197 -3.679 0.657 L -6.044 4.183 C -6.242 4.446 -6.286 4.687 -6.286 5.3 L -6.286 7.052 C -6.286 7.446 -6.155 7.687 -5.651 7.687 L -5.212 7.687 C -4.139 7.687 -3.132 8.432 -3.132 9.461 C -3.132 10.6 -4.008 11.323 -5.146 11.323 L -8.06 11.323 L -8.06 0.635 C -8.06 0.132 -8.3 0 -8.695 0 L -10.863 0 C -11.258 0 -11.477 0.132 -11.477 0.635 L -11.477 13.754 C -11.477 14.148 -11.367 14.389 -10.863 14.389 L -5.344 14.389 C -2.956 14.389 -1.905 13.907 -0.985 12.988 C -0.174 12.199 0.285 10.95 0.285 9.549 C 0.285 7.249 -1.402 5.65 -2.759 5.191 L 0.329 0.701 C 0.526 0.394 0.416 0 0 0" style="fill: rgb(255, 255, 255); fill-opacity: 1;"></path>
      </g>
    </g>
    <g style="clip-path: url(#clippath0);">
      <g transform="translate(119.8747 24.9053)">
        <path d="M 0 0 L 0 -1.818 C 0 -2.212 -0.13 -2.453 -0.635 -2.453 L -3.985 -2.453 L -3.985 -13.141 C -3.985 -13.644 -4.226 -13.776 -4.62 -13.776 L -6.788 -13.776 C -7.183 -13.776 -7.423 -13.644 -7.423 -13.141 L -7.423 -2.453 L -10.797 -2.453 C -11.301 -2.453 -11.432 -2.212 -11.432 -1.818 L -11.432 0 C -11.432 0.394 -11.301 0.635 -10.797 0.635 L -0.635 0.635 C -0.13 0.635 0 0.394 0 0" style="fill: rgb(255, 255, 255); fill-opacity: 1;"></path>
      </g>
    </g>
    <g style="clip-path: url(#clippath0);">
      <g transform="translate(23.6959 53.7407)">
        <path d="M 0 0 C -1.217 0 -2.371 -0.486 -3.352 -1.416 C -4.964 -2.946 -5.888 -5.437 -5.888 -8.255 C -5.888 -11.266 -4.928 -13.904 -3.255 -15.492 C -2.231 -16.462 -1.025 -16.954 0.244 -16.875 C 3.719 -16.693 6.442 -12.912 6.442 -8.268 C 6.442 -3.82 3.719 -0.19 0.244 -0.007 C 0.162 -0.002 0.082 0 0 0 M -0.413 -22.182 C -2.726 -22.182 -4.868 -21.325 -6.647 -19.677 C -9.388 -17.139 -10.96 -12.973 -10.96 -8.25 C -10.96 -3.723 -9.426 0.295 -6.751 2.773 C -4.766 4.61 -2.319 5.476 0.32 5.271 C 6.703 4.78 11.516 -1.042 11.516 -8.272 C 11.516 -15.695 6.703 -21.663 0.32 -22.154 C 0.073 -22.172 -0.171 -22.182 -0.413 -22.182" style="fill: rgb(255, 255, 255); fill-opacity: 1;"></path>
      </g>
    </g>
    <g style="clip-path: url(#clippath0);">
      <g transform="translate(43.9615 47.9805)">
        <path d="M 0 0 L 3.046 -0.028 C 3.583 -0.03 4.026 0.13 4.351 0.453 C 4.757 0.854 4.98 1.51 4.98 2.3 C 4.98 3.274 4.647 4.036 4.069 4.392 C 3.701 4.59 3.252 4.69 2.588 4.712 L 0 4.802 Z M 0 -4.522 L 0 -10.164 L 3.224 -10.053 C 3.726 -10.036 4.171 -9.948 4.477 -9.806 C 5.271 -9.42 5.792 -8.373 5.792 -7.143 C 5.792 -6.283 5.546 -5.584 5.08 -5.121 C 4.665 -4.708 4.084 -4.499 3.392 -4.504 Z M -7.425 -15.125 L -7.425 -10.683 L -4.961 -10.582 L -4.961 5.188 L -7.425 5.289 L -7.425 9.763 L -6.809 9.728 C -3.031 9.507 -1.143 9.407 2.635 9.227 C 4.141 9.155 5.319 8.992 6.541 8.406 C 8.704 7.4 10.001 5.253 10.001 2.663 C 10.001 0.777 9.274 -0.89 8.015 -1.974 C 9.785 -2.963 10.813 -4.895 10.813 -7.328 C 10.813 -10.399 9.059 -13.023 6.343 -14.015 C 5.259 -14.396 4.262 -14.511 3.096 -14.566 C -0.865 -14.753 -2.846 -14.857 -6.807 -15.089 Z" style="fill: rgb(255, 255, 255); fill-opacity: 1;"></path>
      </g>
    </g>
    <g style="clip-path: url(#clippath0);">
      <g transform="translate(62.2258 33.629)">
        <path d="M 0 0 C -1.836 0 -3.482 0.619 -4.657 1.759 C -5.92 2.987 -6.589 4.787 -6.589 6.964 L -6.589 9.046 L -1.771 9.094 L -1.771 7.35 C -1.771 6.622 -1.653 5.64 -1.092 5.091 C -0.772 4.778 -0.363 4.648 0.245 4.643 C 1.539 4.67 2.197 5.6 2.197 7.41 L 2.197 18.782 L -0.646 18.837 L -0.646 22.999 L -0.047 22.983 C 3.478 22.881 5.239 22.84 8.763 22.775 L 9.335 22.765 L 9.335 18.667 L 7.16 18.699 L 7.16 7.296 C 7.16 2.398 3.686 0.105 0.245 0.003 C 0.163 0.002 0.082 0 0 0" style="fill: rgb(255, 255, 255); fill-opacity: 1;"></path>
      </g>
    </g>
    <g style="clip-path: url(#clippath0);">
      <g transform="translate(72.9191 34.2282)">
        <path d="M 0 0 L 0 4.061 L 2.465 4.088 L 2.465 18.026 L 0 18.053 L 0 22.141 L 0.591 22.132 C 6.765 22.037 9.76 22.021 15.866 22.036 L 16.45 22.037 L 16.45 15.52 L 12.036 15.518 L 12.036 17.798 C 10.286 17.8 9.18 17.803 7.43 17.813 L 7.43 13.266 L 14.217 13.261 L 14.217 9.026 L 7.43 9.022 L 7.43 4.329 C 9.354 4.341 10.548 4.344 12.471 4.346 L 12.471 6.684 L 16.885 6.679 L 16.885 0.103 L 16.3 0.105 C 10.036 0.128 6.959 0.11 0.591 0.01 Z" style="fill: rgb(255, 255, 255); fill-opacity: 1;"></path>
      </g>
    </g>
    <g style="clip-path: url(#clippath0);">
      <g transform="translate(102.8553 33.8237)">
        <path d="M 0 0 C -0.087 0 -0.168 0 -0.248 0.002 C -6.707 0.131 -11.579 5.101 -11.579 11.564 C -11.579 17.928 -6.77 22.82 -0.393 22.944 C 1.564 22.986 5.316 22.567 7.16 20.757 C 7.874 20.058 8.235 19.223 8.235 18.273 L 8.235 14.794 L 3.62 14.751 L 3.62 16.986 C 3.62 17.194 3.538 17.372 3.364 17.545 C 2.7 18.198 1.059 18.474 -0.198 18.461 C -3.966 18.409 -6.498 15.708 -6.498 11.74 C -6.498 7.458 -3.885 4.544 0.005 4.489 C 1.088 4.502 2.962 4.752 3.642 5.422 C 3.855 5.632 3.88 5.813 3.88 5.933 L 3.88 8.169 L 8.496 8.122 L 8.496 4.615 C 8.496 3.701 8.144 2.891 7.446 2.207 C 5.662 0.458 2.04 0 0 0" style="fill: rgb(255, 255, 255); fill-opacity: 1;"></path>
      </g>
    </g>
    <g style="clip-path: url(#clippath0);">
      <g transform="translate(126.9764 33.3627)">
        <path d="M 0 0 L -0.609 0.028 C -4.109 0.193 -5.858 0.268 -9.358 0.398 L -9.919 0.419 L -9.919 4.604 L -7.456 4.535 L -7.456 19.12 L -10.176 19.048 L -10.176 15.755 L -14.56 15.695 L -14.56 23.299 L -13.995 23.317 C -6.704 23.547 -3.167 23.697 4.023 24.079 L 4.637 24.111 L 4.637 16.024 L 0.255 15.933 L 0.255 19.359 L -2.493 19.268 L -2.493 4.384 L 0 4.299 Z" style="fill: rgb(255, 255, 255); fill-opacity: 1;"></path>
      </g>
    </g>
    <g style="clip-path: url(#clippath0);">
      <g transform="translate(142.5928 32.464)">
        <path d="M 0 0 L -0.621 0.042 C -4.118 0.273 -5.867 0.379 -9.363 0.573 L -9.914 0.604 L -9.914 4.986 L -7.451 4.885 L -7.451 20.752 L -9.914 20.654 L -9.914 25.068 L -9.363 25.1 C -5.867 25.293 -4.118 25.399 -0.621 25.631 L 0 25.672 L 0 21.087 L -2.492 20.972 L -2.492 4.667 L 0 4.549 Z" style="fill: rgb(255, 255, 255); fill-opacity: 1;"></path>
      </g>
    </g>
    <g style="clip-path: url(#clippath0);">
      <g transform="translate(154.4927 31.5835)">
        <path d="M 0 0 L -0.629 0.05 C -4.217 0.338 -6.01 0.473 -9.598 0.722 L -10.141 0.759 L -10.141 5.342 L -7.679 5.218 L -7.679 22.179 L -10.141 22.054 L -10.141 26.672 L -9.598 26.709 C -3.663 27.124 -0.784 27.35 5.07 27.861 L 5.702 27.916 L 5.702 19.691 L 1.297 19.511 L 1.297 22.23 C -0.213 22.146 -1.195 22.091 -2.719 22.009 L -2.719 15.755 L 3.968 15.818 L 3.968 10.668 L -2.719 10.768 L -2.719 4.95 L 0 4.792 Z" style="fill: rgb(255, 255, 255); fill-opacity: 1;"></path>
      </g>
    </g>
  </g>
</svg>